{"title":"The Perfect House (2010) WEBRip","uid":8381323,"size":820135814,"categoryP":"video","categoryS":"movies","magnet":"?xt=urn:btih:38cc9443e86cc5f3ddadb87f43335b24069a50f0&amp;dn=The+Perfect+House+%282010%29+WEBRip&amp;tr=udp%3A%2F%2Ftracker.openbittorrent.com%3A80&amp;tr=udp%3A%2F%2Fopen.demonii.com%3A1337&amp;tr=udp%3A%2F%2Ftracker.coppersurfer.tk%3A6969&amp;tr=udp%3A%2F%2Fexodus.desync.com%3A6969","seeders":1,"leechers":0,"uploader":"RadioResearch","files":3,"time":1366174597,"description":"*******************************************************************************\n                        The Perfect House (2010) WEBRip\n*******************************************************************************\n\n-------------------------------------------------------------------------------\n                              General Information\n-------------------------------------------------------------------------------\nType.................: Movie\n\n\n\nVideo Format.........: AVI\nVideo Bitrate........: 1316\nResolution...........: 640 x 360\nColor................: 8 bit\nFPS..................: 24.000\nSource...............: WEB 16:9\nOriginal Format......: NTSC\nGenre................: Horror\nIMDb Rating..........: 4.9\nMovie Information....: http://www.imdb.com/title/tt1571247/\n\n-------------------------------------------------------------------------------\n                               Post Information\n-------------------------------------------------------------------------------\nPosted by............: RadioResearch\nPosted on............: 4/17/2013\n\n-------------------------------------------------------------------------------\n                                 Release Notes\n-------------------------------------------------------------------------------\nSEEDBOX SUPPORTED!!\n\nNewlyweds, Mike and Marisol, are given the tour of their potential dream home by \na perky real estate Agent. They soon find out that their perfect house might \njust have a past. The ugly horrors of this house are revealed through three \noriginal tales of terror: &quot;THE STORM&quot; A Hitchcock inspired, dark shadow filled \ntale of an abusive family taking shelter in their basement from a violent, fast \napproaching storm. Soon we learn that the weather isn't the only thing \nthreatening to tear this family apart.... &quot;CHIC-KEN&quot; Jason, Michael Myers and \nFreddy Krueger are all mythological perfect killing machines that still to this \nday terrorize our subconscious. But could the perfect serial killer truly exist? \nMaybe he's already been operating undetected for years. Maybe he's someone's \nnext-door neighbor. Maybe even yours...... &quot;DINNER GUEST&quot; Overseas tourists and \nmalcontents have been tortured and dismembered by sick sociopaths in puzzling \nways many times over. These days you never know what can be the trigger that \nunleashes a brutal murderous attack. Infidelity? Revenge? Greed? Power? Maybe \nsomething as simple as forgetting to return that borrowed lawn tool can set \nsomeone off. You'll be sure to have all your affairs in order the next time you \naccept an invitation to be a &quot;Dinner Guest&quot; \n\nEnjoy!\n\nRadioResearch\n\nGeneral\nComplete name                            : G:The Perfect House (2010) WEBRip\nThe Perfect House.avi\nFormat                                   : AVI\nFormat/Info                              : Audio Video Interleave\nFile size                                : 782 MiB\nDuration                                 : 1h 23mn\nOverall bit rate                         : 1 316 Kbps\n\nVideo\nID                                       : 0\nFormat                                   : MPEG-4 Visual\nFormat profile                           : Simple@L3\nFormat settings, BVOP                    : No\nFormat settings, QPel                    : No\nFormat settings, GMC                     : No warppoints\nFormat settings, Matrix                  : Default (H.263)\nCodec ID                                 : XVID\nCodec ID/Hint                            : XviD\nDuration                                 : 1h 23mn\nBit rate                                 : 1 176 Kbps\nWidth                                    : 640 pixels\nHeight                                   : 360 pixels\nDisplay aspect ratio                     : 16:9\nFrame rate                               : 24.000 fps\nColor space                              : YUV\nChroma subsampling                       : 4:2:0\nBit depth                                : 8 bits\nScan type                                : Progressive\nCompression mode                         : Lossy\nBits/(Pixel*Frame)                       : 0.213\nStream size                              : 699 MiB (89%)\nWriting library                          : XviD 1.2.1 (UTC 2008-12-04)\n\nAudio\nID                                       : 1\nFormat                                   : MPEG Audio\nFormat version                           : Version 1\nFormat profile                           : Layer 3\nMode                                     : Joint stereo\nMode extension                           : MS Stereo\nCodec ID                                 : 55\nCodec ID/Hint                            : MP3\nDuration                                 : 1h 23mn\nBit rate mode                            : Constant\nBit rate                                 : 128 Kbps\nChannel(s)                               : 2 channels\nSampling rate                            : 44.1 KHz\nCompression mode                         : Lossy\nStream size                              : 76.1 MiB (10%)\nAlignment                                : Aligned on interleaves\nInterleave, duration                     : 26 ms (0.63 video frame)\nWriting library                          : LAME3.98.2\n\n\n\n\n-------------------------------------------------------------------------------\nGenerated with Cool NFO Creator - http://fly.to/coolbeans\n-------------------------------------------------------------------------------\n","torrent":{"xt":"urn:btih:38cc9443e86cc5f3ddadb87f43335b24069a50f0","amp;dn":"The+Perfect+House+%282010%29+WEBRip","amp;tr":["udp%3A%2F%2Ftracker.openbittorrent.com%3A80","udp%3A%2F%2Fopen.demonii.com%3A1337","udp%3A%2F%2Ftracker.coppersurfer.tk%3A6969","udp%3A%2F%2Fexodus.desync.com%3A6969"],"infoHash":"38cc9443e86cc5f3ddadb87f43335b24069a50f0","infoHashBuffer":{"type":"Buffer","data":[56,204,148,67,232,108,197,243,221,173,184,127,67,51,91,36,6,154,80,240]},"announce":[],"urlList":[]}}